<?xml version="1.0" encoding="UTF-8" standalone="no"?>
<svg
   xmlns:dc="http://purl.org/dc/elements/1.1/"
   xmlns:cc="http://creativecommons.org/ns#"
   xmlns:rdf="http://www.w3.org/1999/02/22-rdf-syntax-ns#"
   xmlns:svg="http://www.w3.org/2000/svg"
   xmlns="http://www.w3.org/2000/svg"
   viewBox="0 0 377.33334 377.33334"
   height="377.33334"
   width="377.33334"
   xml:space="preserve"
   id="svg2"
   version="1.1"><metadata
     id="metadata8"><rdf:RDF><cc:Work
         rdf:about=""><dc:format>image/svg+xml</dc:format><dc:type
           rdf:resource="http://purl.org/dc/dcmitype/StillImage" /></cc:Work></rdf:RDF></metadata><defs
     id="defs6"><clipPath
       id="clipPath18"
       clipPathUnits="userSpaceOnUse"><path
         id="path16"
         d="M 1,1 H 2360 V 2360 H 1 V 1" /></clipPath><clipPath
       id="clipPath84"
       clipPathUnits="userSpaceOnUse"><path
         id="path82"
         d="M 0,0 H 2362 V 2362 H 0 V 0" /></clipPath></defs><g
     transform="matrix(0,-0.16,-0.16,0,377.33333,377.33333)"
     id="g10"><g
       id="g12"><g
         clip-path="url(#clipPath18)"
         id="g14"><g
           transform="rotate(-90,1120.5,34)"
           id="g20"><path
             id="path22"
             style="fill:none;stroke:#7d7d7d;stroke-width:28;stroke-linecap:round;stroke-linejoin:round;stroke-miterlimit:10;stroke-dasharray:none;stroke-opacity:1"
             d="M 256.5,0 C 256.5,141.66104 141.66104,256.5 0,256.5 -141.66104,256.5 -256.5,141.66104 -256.5,0 c 0,-141.66104 114.83896,-256.5 256.5,-256.5 141.66104,0 256.5,114.83896 256.5,256.5" /></g><g
           transform="rotate(-90,1120.5,34)"
           id="g24"><path
             id="path26"
             style="fill:none;stroke:#7d7d7d;stroke-width:28;stroke-linecap:round;stroke-linejoin:round;stroke-miterlimit:10;stroke-dasharray:none;stroke-opacity:1"
             d="M 311.5,0 C 311.5,172.03671 172.03671,311.5 0,311.5 -172.03671,311.5 -311.5,172.03671 -311.5,0 c 0,-172.03671 139.46329,-311.5 311.5,-311.5 172.03671,0 311.5,139.46329 311.5,311.5" /></g><path
           id="path28"
           style="fill:#7d7d7d;fill-opacity:1;fill-rule:nonzero;stroke:#7d7d7d;stroke-width:6.25;stroke-linecap:round;stroke-linejoin:round;stroke-miterlimit:10;stroke-dasharray:none;stroke-opacity:1"
           d="m 1220,1936 -1,5 -3,4 -4,3 -5,1 -5,-1 -4,-3 -3,-4 -1,-5 1,-5 3,-4 4,-3 5,-1 5,1 4,3 3,4 z" /><path
           id="path30"
           style="fill:none;stroke:#7d7d7d;stroke-width:28;stroke-linecap:round;stroke-linejoin:round;stroke-miterlimit:10;stroke-dasharray:none;stroke-opacity:1"
           d="M 1207,1936 V 1597" /><path
           id="path32"
           style="fill:none;stroke:#7d7d7d;stroke-width:28;stroke-linecap:round;stroke-linejoin:round;stroke-miterlimit:10;stroke-dasharray:none;stroke-opacity:1"
           d="M 965,1937 V 1597" /><path
           id="path34"
           style="fill:none;stroke:#7d7d7d;stroke-width:28;stroke-linecap:round;stroke-linejoin:round;stroke-miterlimit:10;stroke-dasharray:none;stroke-opacity:1"
           d="M 1207,418 V 758" /><path
           id="path36"
           style="fill:none;stroke:#7d7d7d;stroke-width:28;stroke-linecap:round;stroke-linejoin:round;stroke-miterlimit:10;stroke-dasharray:none;stroke-opacity:1"
           d="M 965,418 V 758" /><path
           id="path38"
           style="fill:none;stroke:#7d7d7d;stroke-width:28;stroke-linecap:round;stroke-linejoin:round;stroke-miterlimit:10;stroke-dasharray:none;stroke-opacity:1"
           d="m 1097,418 h 325" /><g
           transform="rotate(-90,972,-450.5)"
           id="g40"><path
             id="path42"
             style="fill:none;stroke:#7d7d7d;stroke-width:28;stroke-linecap:round;stroke-linejoin:round;stroke-miterlimit:10;stroke-dasharray:none;stroke-opacity:1"
             d="M 102.5,0 C 102.5,56.60919 56.60919,102.5 0,102.5" /></g><path
           id="path44"
           style="fill:none;stroke:#7d7d7d;stroke-width:28;stroke-linecap:round;stroke-linejoin:round;stroke-miterlimit:10;stroke-dasharray:none;stroke-opacity:1"
           d="m 1525,521 2,320 178,111 v 202 249 l -178,112 v 320" /><g
           transform="rotate(-90,1627.5,205)"
           id="g46"><path
             id="path48"
             style="fill:none;stroke:#7d7d7d;stroke-width:28;stroke-linecap:round;stroke-linejoin:round;stroke-miterlimit:10;stroke-dasharray:none;stroke-opacity:1"
             d="M -2.4043,104.47234 C -53.49175,103.29662 -96.23573,65.3471 -103.45261,14.7583" /></g><path
           id="path50"
           style="fill:none;stroke:#7d7d7d;stroke-width:28;stroke-linecap:round;stroke-linejoin:round;stroke-miterlimit:10;stroke-dasharray:none;stroke-opacity:1"
           d="m 1437,1936 h -340 l -379,1" /><g
           transform="rotate(-90,1275.5,557)"
           id="g52"><path
             id="path54"
             style="fill:none;stroke:#7d7d7d;stroke-width:28;stroke-linecap:round;stroke-linejoin:round;stroke-miterlimit:10;stroke-dasharray:none;stroke-opacity:1"
             d="m -104.49993,0.12023 c -0.0319,-27.73594 10.96378,-54.34681 30.56478,-73.97037 C -54.33416,-93.4737 -27.73596,-104.5 0,-104.5" /></g><path
           id="path56"
           style="fill:none;stroke:#7d7d7d;stroke-width:28;stroke-linecap:round;stroke-linejoin:round;stroke-miterlimit:10;stroke-dasharray:none;stroke-opacity:1"
           d="M 614,1832 V 523" /><g
           transform="rotate(-90,621,-97.5)"
           id="g58"><path
             id="path60"
             style="fill:none;stroke:#7d7d7d;stroke-width:28;stroke-linecap:round;stroke-linejoin:round;stroke-miterlimit:10;stroke-dasharray:none;stroke-opacity:1"
             d="m 0,-104.5 c 57.71376,0 104.5,46.78624 104.5,104.5" /></g><path
           id="path62"
           style="fill:none;stroke:#7d7d7d;stroke-width:28;stroke-linecap:round;stroke-linejoin:round;stroke-miterlimit:10;stroke-dasharray:none;stroke-opacity:1"
           d="m 718,418 h 379" /><g
           transform="rotate(-90,1120.5,34)"
           id="g64"><path
             id="path66"
             style="fill:none;stroke:#7d7d7d;stroke-width:28;stroke-linecap:round;stroke-linejoin:round;stroke-miterlimit:10;stroke-dasharray:none;stroke-opacity:1"
             d="M 169.5,0 C 169.5,93.61227 93.61227,169.5 0,169.5 -93.61227,169.5 -169.5,93.61227 -169.5,0 c 0,-93.61227 75.88773,-169.5 169.5,-169.5 93.61227,0 169.5,75.88773 169.5,169.5" /></g><path
           id="path68"
           style="fill:none;stroke:#7d7d7d;stroke-width:28;stroke-linecap:round;stroke-linejoin:round;stroke-miterlimit:10;stroke-dasharray:none;stroke-opacity:1"
           d="M 1503,1515 H 1392" /><path
           id="path70"
           style="fill:none;stroke:#7d7d7d;stroke-width:28;stroke-linecap:round;stroke-linejoin:round;stroke-miterlimit:10;stroke-dasharray:none;stroke-opacity:1"
           d="M 1505,841 H 1392" /><g
           transform="rotate(-90,1040.5,138)"
           id="g72"><path
             id="path74"
             style="fill:none;stroke:#7d7d7d;stroke-width:28;stroke-linecap:round;stroke-linejoin:round;stroke-miterlimit:10;stroke-dasharray:none;stroke-opacity:1"
             d="m 337.07916,489.70184 c -202.99823,139.7309 -471.16009,139.7309 -674.15832,0" /></g><path
           id="path76"
           style="fill:none;stroke:#7d7d7d;stroke-width:28;stroke-linecap:round;stroke-linejoin:round;stroke-miterlimit:10;stroke-dasharray:none;stroke-opacity:1"
           d="m 1527,1755 h 43 v -146 l -43,1" /></g></g><g
       id="g78"><g
         clip-path="url(#clipPath84)"
         id="g80"><path
           id="path86"
           style="fill:none;stroke:#ffffff;stroke-width:6.25;stroke-linecap:round;stroke-linejoin:round;stroke-miterlimit:10;stroke-dasharray:none;stroke-opacity:1"
           d="M 0,2361 V 0 H 2361 V 2361 H 0" /></g></g></g></svg>