<?xml version="1.0" encoding="UTF-8" standalone="no"?>
<svg
   xmlns:dc="http://purl.org/dc/elements/1.1/"
   xmlns:cc="http://creativecommons.org/ns#"
   xmlns:rdf="http://www.w3.org/1999/02/22-rdf-syntax-ns#"
   xmlns:svg="http://www.w3.org/2000/svg"
   xmlns="http://www.w3.org/2000/svg"
   viewBox="0 0 377.33334 377.33334"
   height="377.33334"
   width="377.33334"
   xml:space="preserve"
   id="svg2"
   version="1.1"><metadata
     id="metadata8"><rdf:RDF><cc:Work
         rdf:about=""><dc:format>image/svg+xml</dc:format><dc:type
           rdf:resource="http://purl.org/dc/dcmitype/StillImage" /></cc:Work></rdf:RDF></metadata><defs
     id="defs6"><clipPath
       id="clipPath18"
       clipPathUnits="userSpaceOnUse"><path
         id="path16"
         d="M 1,1 H 2360 V 2360 H 1 V 1" /></clipPath><clipPath
       id="clipPath76"
       clipPathUnits="userSpaceOnUse"><path
         id="path74"
         d="M 0,0 H 2362 V 2362 H 0 V 0" /></clipPath></defs><g
     transform="matrix(0,-0.16,-0.16,0,377.33333,377.33333)"
     id="g10"><g
       id="g12"><g
         clip-path="url(#clipPath18)"
         id="g14"><path
           id="path20"
           style="fill:none;stroke:#7d7d7d;stroke-width:28;stroke-linecap:round;stroke-linejoin:round;stroke-miterlimit:10;stroke-dasharray:none;stroke-opacity:1"
           d="M 1081,1385 V 1014" /><path
           id="path22"
           style="fill:none;stroke:#7d7d7d;stroke-width:28;stroke-linecap:round;stroke-linejoin:round;stroke-miterlimit:10;stroke-dasharray:none;stroke-opacity:1"
           d="M 933,1490 V 909" /><path
           id="path24"
           style="fill:none;stroke:#7d7d7d;stroke-width:28;stroke-linecap:round;stroke-linejoin:round;stroke-miterlimit:10;stroke-dasharray:none;stroke-opacity:1"
           d="M 873,1839 V 1716" /><path
           id="path26"
           style="fill:none;stroke:#7d7d7d;stroke-width:28;stroke-linecap:round;stroke-linejoin:round;stroke-miterlimit:10;stroke-dasharray:none;stroke-opacity:1"
           d="M 873,683 V 560" /><path
           id="path28"
           style="fill:none;stroke:#7d7d7d;stroke-width:28;stroke-linecap:round;stroke-linejoin:round;stroke-miterlimit:10;stroke-dasharray:none;stroke-opacity:1"
           d="m 1793,1490 h 94" /><path
           id="path30"
           style="fill:none;stroke:#7d7d7d;stroke-width:28;stroke-linecap:round;stroke-linejoin:round;stroke-miterlimit:10;stroke-dasharray:none;stroke-opacity:1"
           d="M 933,937 H 836" /><path
           id="path32"
           style="fill:none;stroke:#7d7d7d;stroke-width:28;stroke-linecap:round;stroke-linejoin:round;stroke-miterlimit:10;stroke-dasharray:none;stroke-opacity:1"
           d="m 1856,1322 h 15 15 l 14,-2 14,-2 13,-4 11,-4 5,-2 5,-2 4,-2 4,-3 3,-2 2,-2 2,-2 1,-2 2,-2 v -2 l 1,-1 v -1 -3 -12 -24 -49 -48 -24 -12 -3 -1 l -1,-1 v -2 l -2,-2 -1,-2 -2,-2 -2,-2 -3,-2 -4,-3 -4,-2 -5,-2 -5,-2 -11,-4 -13,-4 -14,-2 -14,-2 h -15 -15" /><path
           id="path34"
           style="fill:none;stroke:#7d7d7d;stroke-width:28;stroke-linecap:round;stroke-linejoin:round;stroke-miterlimit:10;stroke-dasharray:none;stroke-opacity:1"
           d="m 1600,722 h 286" /><g
           transform="rotate(-90,1321,-565.5)"
           id="g36"><path
             id="path38"
             style="fill:none;stroke:#7d7d7d;stroke-width:28;stroke-linecap:round;stroke-linejoin:round;stroke-miterlimit:10;stroke-dasharray:none;stroke-opacity:1"
             d="M 33.5,0 C 33.5,18.50154 18.50154,33.5 0,33.5" /></g><path
           id="path40"
           style="fill:none;stroke:#7d7d7d;stroke-width:28;stroke-linecap:round;stroke-linejoin:round;stroke-miterlimit:10;stroke-dasharray:none;stroke-opacity:1"
           d="M 1919,755 V 875" /><g
           transform="rotate(-90,1381,-505.5)"
           id="g42"><path
             id="path44"
             style="fill:none;stroke:#7d7d7d;stroke-width:28;stroke-linecap:round;stroke-linejoin:round;stroke-miterlimit:10;stroke-dasharray:none;stroke-opacity:1"
             d="M 0,33.5 C -18.50154,33.5 -33.5,18.50154 -33.5,0" /></g><path
           id="path46"
           style="fill:none;stroke:#7d7d7d;stroke-width:28;stroke-linecap:round;stroke-linejoin:round;stroke-miterlimit:10;stroke-dasharray:none;stroke-opacity:1"
           d="m 1886,909 h -93" /><g
           transform="rotate(-90,1705,-181.5)"
           id="g48"><path
             id="path50"
             style="fill:none;stroke:#7d7d7d;stroke-width:28;stroke-linecap:round;stroke-linejoin:round;stroke-miterlimit:10;stroke-dasharray:none;stroke-opacity:1"
             d="M 33.5,0 C 33.5,18.50154 18.50154,33.5 0,33.5" /></g><path
           id="path52"
           style="fill:none;stroke:#7d7d7d;stroke-width:28;stroke-linecap:round;stroke-linejoin:round;stroke-miterlimit:10;stroke-dasharray:none;stroke-opacity:1"
           d="m 1919,1523 v 121" /><g
           transform="rotate(-90,1765.5,-121)"
           id="g54"><path
             id="path56"
             style="fill:none;stroke:#7d7d7d;stroke-width:28;stroke-linecap:round;stroke-linejoin:round;stroke-miterlimit:10;stroke-dasharray:none;stroke-opacity:1"
             d="M 0,33.5 C -18.50154,33.5 -33.5,18.50154 -33.5,0" /></g><path
           id="path58"
           style="fill:none;stroke:#7d7d7d;stroke-width:28;stroke-linecap:round;stroke-linejoin:round;stroke-miterlimit:10;stroke-dasharray:none;stroke-opacity:1"
           d="M 1886,1677 H 1600" /><path
           id="path60"
           style="fill:none;stroke:#7d7d7d;stroke-width:28;stroke-linecap:round;stroke-linejoin:round;stroke-miterlimit:10;stroke-dasharray:none;stroke-opacity:1"
           d="m 1131,766 h 125 63 4 2 1 2 l 16,1 16,1 16,1 17,2 16,3 17,4 16,4 17,5 17,5 16,7 16,7 16,8 16,8 16,9 15,10 15,11 15,11 14,12 13,12 13,13 13,14 12,14 11,14 10,15 10,16 9,15 9,16 8,16 7,16 6,17 5,16 5,17 5,16 3,17 3,16 2,17 1,16 1,16 1,15 -1,16 -1,16 -1,16 -2,17 -3,16 -3,17 -5,16 -5,17 -5,16 -6,17 -7,16 -8,16 -9,16 -9,15 -10,16 -10,14 -11,15 -12,14 -13,14 -13,13 -13,12 -14,12 -15,11 -15,11 -15,10 -16,9 -16,8 -16,8 -16,7 -16,6 -17,6 -17,5 -16,4 -17,4 -16,3 -17,2 -16,1 -16,1 -16,1 h -2 -1 -2 -4 -63 -125" /><path
           id="path62"
           style="fill:none;stroke:#7d7d7d;stroke-width:28;stroke-linecap:round;stroke-linejoin:round;stroke-miterlimit:10;stroke-dasharray:none;stroke-opacity:1"
           d="M 1189,766 V 728 H 1073" /><path
           id="path64"
           style="fill:none;stroke:#7d7d7d;stroke-width:28;stroke-linecap:round;stroke-linejoin:round;stroke-miterlimit:10;stroke-dasharray:none;stroke-opacity:1"
           d="m 1081,1490 -1,16 -2,15 -3,16 -3,8 -2,7 -3,7 -4,7 -3,6 -4,6 -4,5 -5,5 -4,4 -5,4 -5,3 -4,2 -5,2 -5,1 -4,1 h -3 -1 -3 -9 -72 -290 -73 -36 -9 -5 -2 -3 l -4,-1 -5,-1 -5,-2 -4,-2 -5,-3 -5,-3 -4,-4 -5,-5 -4,-5 -4,-6 -4,-6 -3,-7 -3,-7 -3,-8 -4,-15 -3,-16 -1,-15 v -8 -1 -6 -10 -21 -85 -169 -168 -85 -21 -10 -6 -1 -8 l 1,-15 3,-16 4,-16 3,-7 3,-7 3,-7 4,-6 4,-6 4,-5 5,-5 4,-4 5,-3 5,-3 4,-3 5,-1 5,-1 4,-1 h 3 2 5 9 36 73 290 72 9 3 1 3 l 4,1 5,1 5,2 4,2 5,3 5,3 4,5 5,4 4,6 4,6 3,6 4,7 3,7 2,7 3,8 3,16 2,15 1,16" /><path
           id="path66"
           style="fill:none;stroke:#7d7d7d;stroke-width:28;stroke-linecap:round;stroke-linejoin:round;stroke-miterlimit:10;stroke-dasharray:none;stroke-opacity:1"
           d="m 512,683 h -11 l -11,1 -11,2 -11,3 -11,4 -11,5 -11,6 -11,7 -11,8 -10,8 -9,10 -10,10 -8,11 -8,12 -7,13 -7,13 -5,13 -5,14 -5,13 -3,14 -3,14 -1,14 -2,14 v 13 3 1 1 2 5 19 38 75 150 151 75 38 19 5 2 1 1 3 13 l 2,14 1,14 3,14 3,14 5,13 5,14 5,13 7,13 7,13 8,11 8,12 10,10 9,10 10,8 11,8 11,7 11,6 11,5 11,4 11,3 11,2 11,1 h 11" /><path
           id="path68"
           style="fill:none;stroke:#7d7d7d;stroke-width:28;stroke-linecap:round;stroke-linejoin:round;stroke-miterlimit:10;stroke-dasharray:none;stroke-opacity:1"
           d="m 1131,683 -1,-12 -2,-12 -4,-13 -5,-12 -3,-6 -4,-6 -4,-5 -4,-6 -5,-5 -5,-6 -11,-9 -12,-9 -13,-7 -14,-6 -14,-4 -14,-3 -14,-2 h -7 -4 -1 -1 -1 -1 -35 -280 -17 -7 l -14,1 -14,2 -15,4 -13,5 -14,7 -13,8 -11,9 -11,10 -5,5 -4,6 -4,5 -4,6 -6,12 -4,13 -3,12 -1,12 v 3 1 1 1 h 1 48 773 97 1 1 1 3 5 11 l 21,2 21,3 22,4 21,6 22,7 21,9 22,10 21,11 21,13 20,15 20,15 19,17 19,19 17,19 17,21 15,22 15,23 13,23 12,24 11,25 10,25 8,26 8,25 6,26 5,26 3,25 3,26 1,25 1,24 -1,25 -1,25 -3,25 -3,26 -5,26 -6,26 -8,25 -8,26 -10,25 -11,25 -12,24 -13,23 -15,23 -15,22 -17,20 -17,20 -19,18 -19,18 -20,15 -20,15 -21,13 -21,11 -22,10 -21,9 -22,7 -21,6 -22,4 -21,3 -21,2 h -11 -5 -3 -1 -1 -1 -97 -773 -48 -1 v 1 1 1 3 l 1,12 3,12 4,13 6,12 4,5 4,6 4,6 5,5 11,10 11,9 13,8 14,7 13,5 15,4 14,2 14,1 h 7 17 280 35 1 1 1 1 4 7 l 14,-2 14,-3 14,-5 14,-5 13,-8 12,-8 11,-10 5,-5 5,-5 4,-6 4,-5 4,-6 3,-6 5,-12 4,-13 2,-12 1,-12" /></g></g><g
       id="g70"><g
         clip-path="url(#clipPath76)"
         id="g72"><path
           id="path78"
           style="fill:none;stroke:#ffffff;stroke-width:6.25;stroke-linecap:round;stroke-linejoin:round;stroke-miterlimit:10;stroke-dasharray:none;stroke-opacity:1"
           d="M 0,2361 V 0 H 2361 V 2361 H 0" /></g></g></g></svg>