<?xml version="1.0" encoding="UTF-8" standalone="no"?>
<svg
   xmlns:dc="http://purl.org/dc/elements/1.1/"
   xmlns:cc="http://creativecommons.org/ns#"
   xmlns:rdf="http://www.w3.org/1999/02/22-rdf-syntax-ns#"
   xmlns:svg="http://www.w3.org/2000/svg"
   xmlns="http://www.w3.org/2000/svg"
   viewBox="0 0 377.33334 377.33334"
   height="377.33334"
   width="377.33334"
   xml:space="preserve"
   id="svg2"
   version="1.1"><metadata
     id="metadata8"><rdf:RDF><cc:Work
         rdf:about=""><dc:format>image/svg+xml</dc:format><dc:type
           rdf:resource="http://purl.org/dc/dcmitype/StillImage" /></cc:Work></rdf:RDF></metadata><defs
     id="defs6"><clipPath
       id="clipPath18"
       clipPathUnits="userSpaceOnUse"><path
         id="path16"
         d="M 1,1 H 2360 V 2360 H 1 V 1" /></clipPath><clipPath
       id="clipPath76"
       clipPathUnits="userSpaceOnUse"><path
         id="path74"
         d="M 0,0 H 2362 V 2362 H 0 V 0" /></clipPath></defs><g
     transform="matrix(0,-0.16,-0.16,0,377.33333,377.33333)"
     id="g10"><g
       id="g12"><g
         clip-path="url(#clipPath18)"
         id="g14"><path
           id="path20"
           style="fill:none;stroke:#7d7d7d;stroke-width:28;stroke-linecap:round;stroke-linejoin:round;stroke-miterlimit:10;stroke-dasharray:none;stroke-opacity:1"
           d="M 1113,1394 V 1023" /><path
           id="path22"
           style="fill:none;stroke:#7d7d7d;stroke-width:28;stroke-linecap:round;stroke-linejoin:round;stroke-miterlimit:10;stroke-dasharray:none;stroke-opacity:1"
           d="M 966,1499 V 918" /><path
           id="path24"
           style="fill:none;stroke:#7d7d7d;stroke-width:28;stroke-linecap:round;stroke-linejoin:round;stroke-miterlimit:10;stroke-dasharray:none;stroke-opacity:1"
           d="M 906,1848 V 1725" /><path
           id="path26"
           style="fill:none;stroke:#7d7d7d;stroke-width:28;stroke-linecap:round;stroke-linejoin:round;stroke-miterlimit:10;stroke-dasharray:none;stroke-opacity:1"
           d="M 906,692 V 569" /><path
           id="path28"
           style="fill:none;stroke:#7d7d7d;stroke-width:28;stroke-linecap:round;stroke-linejoin:round;stroke-miterlimit:10;stroke-dasharray:none;stroke-opacity:1"
           d="m 1825,1499 h 94" /><path
           id="path30"
           style="fill:none;stroke:#7d7d7d;stroke-width:28;stroke-linecap:round;stroke-linejoin:round;stroke-miterlimit:10;stroke-dasharray:none;stroke-opacity:1"
           d="M 966,946 H 869" /><path
           id="path32"
           style="fill:none;stroke:#7d7d7d;stroke-width:28;stroke-linecap:round;stroke-linejoin:round;stroke-miterlimit:10;stroke-dasharray:none;stroke-opacity:1"
           d="m 1888,1331 h 15 15 l 14,-2 7,-1 7,-1 7,-2 6,-2 6,-2 5,-2 5,-2 5,-2 4,-2 4,-3 3,-2 2,-2 2,-2 1,-2 1,-1 1,-2 1,-1 v -1 -1 -3 -12 -24 -49 -48 -24 -12 -3 -1 -1 l -1,-2 -1,-1 -1,-1 -1,-2 -2,-2 -2,-2 -3,-2 -4,-3 -4,-2 -5,-2 -5,-2 -5,-3 -6,-1 -6,-2 -7,-2 -7,-1 -7,-1 -14,-2 h -15 -15" /><path
           id="path34"
           style="fill:none;stroke:#7d7d7d;stroke-width:28;stroke-linecap:round;stroke-linejoin:round;stroke-miterlimit:10;stroke-dasharray:none;stroke-opacity:1"
           d="m 1632,731 h 286" /><g
           transform="rotate(-90,1341.5,-577)"
           id="g36"><path
             id="path38"
             style="fill:none;stroke:#7d7d7d;stroke-width:28;stroke-linecap:round;stroke-linejoin:round;stroke-miterlimit:10;stroke-dasharray:none;stroke-opacity:1"
             d="M 33.5,0 C 33.5,18.50154 18.50154,33.5 0,33.5" /></g><path
           id="path40"
           style="fill:none;stroke:#7d7d7d;stroke-width:28;stroke-linecap:round;stroke-linejoin:round;stroke-miterlimit:10;stroke-dasharray:none;stroke-opacity:1"
           d="M 1952,764 V 884" /><g
           transform="rotate(-90,1401.5,-517)"
           id="g42"><path
             id="path44"
             style="fill:none;stroke:#7d7d7d;stroke-width:28;stroke-linecap:round;stroke-linejoin:round;stroke-miterlimit:10;stroke-dasharray:none;stroke-opacity:1"
             d="M 0,33.5 C -18.50154,33.5 -33.5,18.50154 -33.5,0" /></g><path
           id="path46"
           style="fill:none;stroke:#7d7d7d;stroke-width:28;stroke-linecap:round;stroke-linejoin:round;stroke-miterlimit:10;stroke-dasharray:none;stroke-opacity:1"
           d="m 1918,918 h -93" /><g
           transform="rotate(-90,1725.5,-193)"
           id="g48"><path
             id="path50"
             style="fill:none;stroke:#7d7d7d;stroke-width:28;stroke-linecap:round;stroke-linejoin:round;stroke-miterlimit:10;stroke-dasharray:none;stroke-opacity:1"
             d="M 33.5,0 C 33.5,18.50154 18.50154,33.5 0,33.5" /></g><path
           id="path52"
           style="fill:none;stroke:#7d7d7d;stroke-width:28;stroke-linecap:round;stroke-linejoin:round;stroke-miterlimit:10;stroke-dasharray:none;stroke-opacity:1"
           d="m 1952,1532 v 121" /><g
           transform="rotate(-90,1786,-132.5)"
           id="g54"><path
             id="path56"
             style="fill:none;stroke:#7d7d7d;stroke-width:28;stroke-linecap:round;stroke-linejoin:round;stroke-miterlimit:10;stroke-dasharray:none;stroke-opacity:1"
             d="M 0,33.5 C -18.50154,33.5 -33.5,18.50154 -33.5,0" /></g><path
           id="path58"
           style="fill:none;stroke:#7d7d7d;stroke-width:28;stroke-linecap:round;stroke-linejoin:round;stroke-miterlimit:10;stroke-dasharray:none;stroke-opacity:1"
           d="M 1918,1686 H 1632" /><path
           id="path60"
           style="fill:none;stroke:#7d7d7d;stroke-width:28;stroke-linecap:round;stroke-linejoin:round;stroke-miterlimit:10;stroke-dasharray:none;stroke-opacity:1"
           d="m 1163,775 h 126 63 3 2 1 2 l 16,1 16,1 16,1 17,2 16,3 17,4 17,4 16,5 17,5 16,7 16,7 17,8 16,8 15,9 15,10 15,11 15,11 14,12 13,12 13,13 13,14 12,14 11,14 10,15 10,16 10,15 8,16 8,16 7,16 6,17 6,16 5,17 4,16 3,17 3,16 2,17 2,16 v 16 l 1,15 -1,16 v 16 l -2,16 -2,17 -3,16 -3,17 -4,16 -5,17 -6,16 -6,17 -7,16 -8,16 -8,16 -10,15 -10,16 -10,14 -11,15 -12,14 -13,14 -13,13 -13,12 -14,12 -15,11 -15,11 -15,9 -15,10 -16,8 -17,8 -16,7 -16,6 -17,6 -16,5 -17,4 -17,4 -16,3 -17,2 -16,1 -16,1 -16,1 h -2 -1 -2 -3 -63 -126" /><path
           id="path62"
           style="fill:none;stroke:#7d7d7d;stroke-width:28;stroke-linecap:round;stroke-linejoin:round;stroke-miterlimit:10;stroke-dasharray:none;stroke-opacity:1"
           d="M 1222,775 V 737 H 1105" /><path
           id="path64"
           style="fill:none;stroke:#7d7d7d;stroke-width:28;stroke-linecap:round;stroke-linejoin:round;stroke-miterlimit:10;stroke-dasharray:none;stroke-opacity:1"
           d="m 1113,1499 v 8 l -1,8 -1,7 -1,8 -1,8 -2,8 -2,8 -3,7 -3,7 -3,7 -4,6 -4,6 -4,5 -4,5 -5,4 -5,4 -4,3 -5,2 -5,2 -5,1 -4,1 h -2 -1 -1 -2 -10 -72 -290 -73 -36 -9 -4 -3 -2 l -5,-1 -5,-1 -5,-2 -4,-2 -5,-3 -5,-3 -4,-4 -5,-5 -4,-5 -4,-6 -3,-6 -4,-7 -3,-7 -3,-8 -2,-7 -2,-8 -1,-8 -2,-8 v -8 l -1,-7 v -8 -1 -6 -10 -21 -85 -169 -168 -85 -21 -10 -6 -1 -8 l 1,-8 v -7 l 2,-8 1,-8 2,-8 2,-8 3,-7 3,-7 4,-7 3,-6 4,-6 4,-5 5,-5 4,-4 5,-3 5,-3 4,-3 5,-1 5,-1 5,-1 h 2 3 4 9 36 73 290 72 10 2 1 1 2 l 4,1 5,1 5,2 5,2 4,3 5,3 5,5 4,4 4,6 4,6 4,6 3,7 3,7 3,7 2,8 2,8 1,8 1,7 1,8 1,8 v 8" /><path
           id="path66"
           style="fill:none;stroke:#7d7d7d;stroke-width:28;stroke-linecap:round;stroke-linejoin:round;stroke-miterlimit:10;stroke-dasharray:none;stroke-opacity:1"
           d="m 544,692 h -11 l -11,1 -11,2 -11,3 -11,4 -11,5 -11,6 -11,7 -10,7 -11,9 -9,10 -9,10 -9,11 -8,12 -7,13 -7,13 -5,13 -5,14 -4,13 -4,14 -2,14 -2,14 -1,14 -1,13 v 3 1 1 2 5 19 38 75 150 151 75 38 19 4 3 1 1 3 l 1,13 1,14 2,14 2,14 4,14 4,13 5,14 5,13 7,13 7,13 8,11 9,12 9,10 9,10 11,8 10,8 11,7 11,6 11,5 11,4 11,3 11,2 11,1 h 11" /><path
           id="path68"
           style="fill:none;stroke:#7d7d7d;stroke-width:28;stroke-linecap:round;stroke-linejoin:round;stroke-miterlimit:10;stroke-dasharray:none;stroke-opacity:1"
           d="m 1163,692 v -6 l -1,-6 -1,-6 -1,-6 -1,-7 -2,-6 -3,-6 -3,-6 -3,-6 -3,-6 -4,-5 -5,-6 -4,-5 -6,-6 -5,-4 -6,-5 -6,-5 -6,-4 -6,-3 -7,-4 -7,-3 -7,-3 -7,-2 -7,-2 -7,-2 -7,-1 -7,-1 -7,-1 h -7 -3 -2 -1 -1 -35 -281 -17 -1 -1 -2 -3 -7 l -7,1 -7,1 -7,1 -7,2 -7,2 -7,2 -7,3 -7,3 -7,4 -6,3 -7,5 -6,4 -5,5 -6,5 -5,5 -4,5 -5,6 -4,5 -3,6 -4,6 -2,6 -3,6 -2,7 -1,6 -1,6 -1,6 -1,6 v 3 1 1 1 h 1 48 773 97 1 1 2 2 5 11 l 10,1 11,1 10,1 11,2 11,2 11,2 11,3 10,3 11,3 11,4 11,4 11,5 10,4 11,6 11,5 10,6 11,6 10,7 10,7 11,8 9,7 10,8 10,9 9,8 10,9 9,10 9,9 8,10 9,11 8,10 8,11 7,11 8,11 7,12 7,11 6,12 6,12 6,12 6,13 5,12 5,13 5,12 5,13 4,13 7,25 6,26 5,26 4,25 2,26 2,25 v 24 25 l -2,25 -2,25 -4,26 -5,26 -6,26 -7,25 -4,13 -5,13 -5,12 -5,13 -5,12 -6,13 -6,12 -6,12 -6,12 -7,11 -7,12 -8,11 -7,11 -8,11 -8,10 -9,10 -8,10 -9,10 -9,9 -10,9 -9,9 -10,9 -10,8 -9,7 -11,8 -10,7 -10,6 -11,7 -10,6 -11,5 -11,5 -10,5 -11,5 -11,4 -11,4 -11,3 -10,3 -11,3 -11,2 -11,2 -11,2 -10,1 -11,1 -10,1 h -11 -5 -2 -2 -1 -1 -97 -773 -48 -1 v 1 1 1 3 l 1,6 1,6 1,6 1,6 2,6 3,6 2,7 4,6 3,5 4,6 5,6 4,5 5,5 6,5 5,5 6,4 7,4 6,4 7,4 7,3 7,2 7,3 7,2 7,2 7,1 7,1 7,1 h 7 3 2 1 1 17 281 35 1 1 2 3 7 l 7,-1 7,-1 7,-1 7,-2 7,-2 7,-3 7,-2 7,-3 7,-4 6,-4 6,-4 6,-4 6,-5 5,-5 6,-5 4,-5 5,-6 4,-5 3,-6 3,-6 3,-6 3,-6 2,-7 1,-6 1,-6 1,-6 1,-6 v -6" /></g></g><g
       id="g70"><g
         clip-path="url(#clipPath76)"
         id="g72"><path
           id="path78"
           style="fill:none;stroke:#ffffff;stroke-width:6.25;stroke-linecap:round;stroke-linejoin:round;stroke-miterlimit:10;stroke-dasharray:none;stroke-opacity:1"
           d="M 0,2361 V 0 H 2361 V 2361 H 0" /><path
           id="path80"
           style="fill:none;stroke:#ffffff;stroke-width:6;stroke-linecap:round;stroke-linejoin:round;stroke-miterlimit:10;stroke-dasharray:none;stroke-opacity:1"
           d="M 2361,0 H 0 V 2361 H 2361 V 0" /></g></g></g></svg>